<svg width="16" height="16" viewBox="0 0 16 16" fill="none" xmlns="http://www.w3.org/2000/svg">
<path d="M12.2885 13.0578L12.3755 14.0921C11.144 14.9781 9.63296 15.5 8 15.5C6.36704 15.5 4.85597 14.9781 3.62448 14.0921L3.71154 13.0578C3.85097 11.4012 5.24044 10.1 6.93333 10.1H9.06667C10.7596 10.1 12.149 11.4012 12.2885 13.0578ZM12.4081 14.0685L13.1319 13.3775C14.5493 12.0245 15.4333 10.1151 15.4333 8C15.4333 3.89468 12.1053 0.566667 8 0.566667C3.89468 0.566667 0.566667 3.89468 0.566667 8C0.566667 10.1151 1.4507 12.0245 2.86805 13.3775L3.59187 14.0685C1.71804 12.705 0.5 10.4947 0.5 8C0.5 3.85786 3.85786 0.5 8 0.5C12.1421 0.5 15.5 3.85786 15.5 8C15.5 10.4947 14.282 12.705 12.4081 14.0685ZM5.83333 5.86667C5.83333 4.67005 6.80338 3.7 8 3.7C9.19662 3.7 10.1667 4.67005 10.1667 5.86667C10.1667 7.06328 9.19662 8.03333 8 8.03333C6.80338 8.03333 5.83333 7.06328 5.83333 5.86667Z" fill="#ECEFF8" stroke="url(#paint0_linear_532_946)"/>
<defs>
<linearGradient id="paint0_linear_532_946" x1="8" y1="0" x2="8" y2="16" gradientUnits="userSpaceOnUse">
<stop stop-color="#8388F9"/>
<stop offset="1" stop-color="#52459F"/>
</linearGradient>
</defs>
</svg>
