<svg width="18" height="18" viewBox="0 0 18 18" fill="none" xmlns="http://www.w3.org/2000/svg">
<path d="M2.31558 11.6801L2.66416 11.3315L2.31558 11.6801C2.31941 11.6839 2.32156 11.6891 2.32156 11.6945V13.5914C2.32156 14.744 3.25598 15.6784 4.40865 15.6784H6.30548C6.3109 15.6784 6.31609 15.6806 6.31992 15.6844L7.52421 16.8887C8.33926 17.7038 9.66074 17.7038 10.4758 16.8887L11.6801 15.6844C11.6839 15.6806 11.6891 15.6784 11.6945 15.6784H13.5914C14.744 15.6784 15.6784 14.744 15.6784 13.5914V11.6945C15.6784 11.6891 15.6806 11.6839 15.6844 11.6801L16.8887 10.4758C17.7038 9.66074 17.7038 8.33927 16.8887 7.52421L15.6844 6.31992C15.6806 6.31609 15.6784 6.3109 15.6784 6.30548V4.40865C15.6784 3.25598 14.744 2.32156 13.5914 2.32156H11.6945C11.6891 2.32156 11.6839 2.31941 11.6801 2.31558L10.4758 1.11129C9.66074 0.296236 8.33927 0.296235 7.52421 1.11129L6.31992 2.31558L6.66207 2.65773L6.31992 2.31558C6.31609 2.31941 6.3109 2.32156 6.30548 2.32156H4.40865C3.25598 2.32156 2.32156 3.25598 2.32156 4.40865V6.30548C2.32156 6.3109 2.31941 6.31609 2.31558 6.31992L1.11129 7.52421C0.296236 8.33926 0.296235 9.66074 1.11129 10.4758L2.31558 11.6801ZM6.66336 11.2896L11.2896 6.66332L11.3367 6.71046L6.7105 11.3367L6.66336 11.2896ZM6.9 6.9H6.83333V6.83333H6.9V6.9ZM11.1667 11.1V11.1667H11.1V11.1H11.1667Z" fill="#ECEFF8" stroke="url(#paint0_linear_532_970)"/>
<defs>
<linearGradient id="paint0_linear_532_970" x1="9" y1="1" x2="9" y2="17" gradientUnits="userSpaceOnUse">
<stop stop-color="#8388F9"/>
<stop offset="1" stop-color="#52459F"/>
</linearGradient>
</defs>
</svg>
