<svg width="176" height="56" preserveAspectRatio="none meet" viewBox="0 0 176 56" fill="none" xmlns="http://www.w3.org/2000/svg">
<g clip-path="url(#clip0_1_82)">
<g clip-path="url(#clip1_1_82)">
<path d="M41.1687 44.6363C47.2184 44.6363 52.1227 39.7321 52.1227 33.6824C52.1227 27.6327 47.2184 22.7285 41.1687 22.7285C35.1191 22.7285 30.2148 27.6327 30.2148 33.6824C30.2148 39.7321 35.1191 44.6363 41.1687 44.6363Z" fill="#84E9F5"/>
<path d="M41.3327 39.282C41.2889 42.3663 38.7569 44.871 35.6725 44.882C34.2452 44.8874 32.9436 44.3679 31.9428 43.5038C30.7342 42.4648 29.9686 40.7585 29.9686 39.0359C29.9686 38.9265 29.9686 38.8718 29.8045 38.7679C29.285 38.4234 28.6178 38.4945 27.9506 38.4945C26.5725 38.4945 25.3475 39.1726 24.6092 40.2117C24.4944 40.4195 24.3795 40.6218 24.2537 40.8187C22.2631 43.9578 18.7577 46.0413 14.7655 46.0304C8.57484 46.0195 3.48891 40.8406 3.58734 34.6499C3.68031 28.5468 8.66234 23.6304 14.7873 23.6304C15.8866 23.6304 16.9475 23.789 17.9483 24.0843C18.1506 24.1445 18.353 24.2101 18.5498 24.2812C19.0366 24.407 19.5506 24.4671 20.0811 24.4507C22.9139 24.3523 25.1944 22.0117 25.2162 19.1734C25.2217 18.7031 25.1616 18.2492 25.0522 17.8117C24.9702 17.5984 24.8991 17.3796 24.8389 17.1554C24.653 16.4718 24.5545 15.7499 24.56 15.0062C24.6037 10.7078 28.1694 7.23509 32.4678 7.30072C36.7116 7.36634 40.1295 10.8281 40.1295 15.0828C40.1295 19.1023 37.078 22.4163 33.1678 22.8265C32.8998 22.8538 32.6209 22.8703 32.3475 22.8703C31.292 22.8703 30.2912 22.6624 29.3725 22.2796C28.76 22.0281 28.06 22.0335 27.4639 22.3234C25.5553 23.2312 24.2373 25.1781 24.2373 27.4312C24.2373 28.1421 24.3686 28.8203 24.6092 29.4492C24.7733 29.7499 24.9264 30.0562 25.0631 30.3734C25.5498 31.489 25.8561 32.6976 25.9545 33.9663C25.9764 34.2507 26.042 34.6171 26.0967 34.8906C26.0967 34.9015 26.0967 34.8796 26.0967 34.8906C26.3592 36.2359 27.2342 37.1328 28.667 37.1328C29.1647 37.1328 29.8428 37.1218 30.253 36.9031C30.4334 36.8101 30.5756 36.6624 30.6741 36.482C30.9475 35.9788 31.2975 35.5249 31.7022 35.1312C32.7248 34.1359 34.1194 33.5234 35.6616 33.5234C38.8116 33.5179 41.3764 36.1046 41.3327 39.282Z" fill="#52459F"/>
<path d="M13.7426 22.8045C15.4309 22.8045 16.7996 21.4358 16.7996 19.7475C16.7996 18.0591 15.4309 16.6904 13.7426 16.6904C12.0542 16.6904 10.6855 18.0591 10.6855 19.7475C10.6855 21.4358 12.0542 22.8045 13.7426 22.8045Z" fill="#84E9F5"/>
</g>
</g>
<path d="M57.28 29.4V31.68H63.84V29.4H57.28ZM63.06 29.4V29.94C62.42 36.2 60.16 41.44 56.64 43.8C57.2 44.24 57.94 45.16 58.32 45.76C62.34 42.7 64.68 37.46 65.44 29.76L63.88 29.32L63.46 29.4H63.06ZM57.28 35.16C60 37.56 63.12 40.96 64.38 43.3L66.26 41.5C64.9 39.12 61.64 35.92 58.92 33.62L57.28 35.16ZM65.72 31.48V33.78H75.32V31.48H65.72ZM70.8 27.02V42.8C70.8 43.14 70.68 43.24 70.34 43.26C69.98 43.26 68.9 43.26 67.78 43.2C68.12 43.94 68.46 45.08 68.54 45.78C70.22 45.78 71.4 45.7 72.16 45.28C72.92 44.86 73.18 44.18 73.18 42.82V27.02H70.8ZM65.56 36.3C66.48 37.66 67.34 39.5 67.64 40.68L69.72 39.62C69.4 38.42 68.44 36.68 67.5 35.36L65.56 36.3ZM82.2104 37.62C86.2504 39.82 86.5904 42.74 85.4504 43.48C85.1104 43.76 84.6904 43.8 84.2104 43.8C83.7104 43.8 83.0104 43.78 82.3104 43.7C82.7304 44.34 82.9504 45.22 82.9904 45.86C83.5504 45.88 84.1304 45.9 84.6104 45.9C85.5904 45.88 86.1704 45.74 86.9304 45.24C89.1904 43.84 88.9704 39.16 83.7904 36.46L82.2104 37.62ZM84.4304 37.82C82.8704 38.96 79.8104 39.98 77.2304 40.44C77.6304 40.84 78.2104 41.58 78.4904 42.06C81.1104 41.44 84.2304 40.1 86.0304 38.62L84.4304 37.82ZM85.7304 39.64C83.8104 41.26 80.0704 42.8 76.8704 43.5C77.3104 43.94 77.9304 44.74 78.2304 45.24C81.4104 44.34 85.1904 42.56 87.4104 40.52L85.7304 39.64ZM82.2904 28.26V30.06H88.1704V28.26H82.2904ZM85.6904 34.74C83.7904 36.08 80.2704 37.12 77.1704 37.64C77.5304 38.04 78.1104 38.92 78.3704 39.32C81.5104 38.58 85.2304 37.3 87.4704 35.6L85.6904 34.74ZM88.3904 35.14L86.3704 35.6C87.6304 40.2 89.8704 43.56 93.8704 45.22C94.1904 44.58 94.8904 43.66 95.4104 43.2C91.6904 41.92 89.4304 38.94 88.3904 35.14ZM93.0304 36.18C91.9304 37.1 90.0504 38.28 88.6704 38.96L90.1904 40.2C91.6104 39.58 93.4504 38.56 94.9704 37.58L93.0304 36.18ZM81.4104 32.86H90.8904V34.38H81.4104V32.86ZM79.1504 31.12V36.12H93.2504V31.12H79.1504ZM82.3104 26.92C81.2904 28.56 79.4304 30.4 76.8504 31.78C77.3704 32.12 78.1104 32.92 78.4704 33.46C81.2704 31.74 83.2704 29.68 84.8104 27.44L82.3104 26.92ZM84.8304 32.04V35.46H87.1904V32.04H84.8304ZM87.2104 28.26V28.7C86.8504 29.5 85.9504 30.82 85.1504 31.62C85.6704 31.92 86.4304 32.42 86.8704 32.76C87.8304 31.86 89.0304 30.4 89.7504 29.24L88.1104 28.16L87.7504 28.26H87.2104ZM103.101 38.52V40.74H115.361V38.52H103.101ZM104.661 33.48V35.64H112.301V33.48H104.661ZM108.201 36.86V43.2C108.201 43.46 108.101 43.52 107.781 43.54C107.461 43.54 106.281 43.54 105.261 43.5C105.561 44.16 105.841 45.1 105.941 45.8C107.541 45.8 108.721 45.78 109.561 45.44C110.421 45.08 110.621 44.46 110.621 43.26V36.86H108.201ZM111.701 33.48V33.92C111.121 34.84 109.761 36.3 108.621 37.12C108.981 37.44 109.601 38.1 109.901 38.52C111.421 37.5 113.081 35.92 114.301 34.54L112.801 33.34L112.301 33.48H111.701ZM97.2408 29.62V31.92H115.081V29.62H97.2408ZM103.501 27C102.461 31.06 100.181 35.56 96.5408 37.94C96.9208 38.54 97.4808 39.64 97.7408 40.3C102.041 37.36 104.561 32.48 106.041 27.62L103.501 27ZM99.5008 35.36V45.78H101.941V35.36H99.5008ZM128.231 27.02V33.96H130.411V27.02H128.231ZM133.371 27.36C131.771 31.94 128.851 35.68 125.011 37.86C125.471 38.28 126.251 39.2 126.531 39.66C130.471 37.12 133.611 32.98 135.491 27.92L133.371 27.36ZM126.151 28.98V30.98H132.251V28.98H126.151ZM125.471 32.78V34.92H135.571V32.78H125.471ZM128.391 39.94V41.66H133.671V39.94H128.391ZM127.391 36.7V45.74H129.431V38.6H132.691V45.68H134.811V36.7H127.391ZM128.391 43.02V44.92H133.671V43.02H128.391ZM121.751 29.22C122.631 30.12 123.631 31.38 124.031 32.22L125.731 31.02C125.291 30.18 124.231 28.98 123.331 28.16L121.751 29.22ZM121.131 33.24V35.52H124.051V33.24H121.131ZM123.011 45.12C123.011 44.34 124.831 43.04 124.831 43.04V33.24H122.811V41.4C122.811 42.3 122.291 42.96 121.891 43.24C122.271 43.66 122.831 44.6 123.011 45.12ZM123.011 45.12C123.331 44.72 123.931 44.3 126.911 42.52C126.731 42.06 126.471 41.24 126.371 40.66L123.191 42.4L122.611 43.12L123.011 45.12ZM119.911 26.92C119.171 29.82 117.931 32.74 116.491 34.68C116.831 35.22 117.391 36.48 117.571 37.02C119.371 34.62 120.951 30.9 121.911 27.48L119.911 26.92ZM118.491 32.26V45.76H120.551V30.28L120.511 30.24L118.491 32.26ZM138.262 28.26V30.64H154.242V28.26H138.262ZM137.182 36.74V39.16H155.402V36.74H137.182ZM139.462 31.92C140.102 33.26 140.742 35.02 140.942 36.1L143.262 35.36C143.042 34.26 142.342 32.56 141.642 31.28L139.462 31.92ZM150.862 31.22C150.482 32.54 149.742 34.3 149.122 35.46L151.222 36.08C151.882 35.04 152.702 33.4 153.422 31.88L150.862 31.22ZM145.002 29.26V45.78H147.502V29.26H145.002ZM160.732 42.66V44.98H171.772V42.66H160.732ZM159.652 36.92V45.78H162.112V39.22H170.452V45.78H173.032V36.92H159.652ZM163.572 26.86C162.712 29.1 161.132 31.98 159.792 33.8L161.952 34.66C163.312 32.92 165.012 30.24 166.312 27.76L163.572 26.86ZM168.372 30.44C170.372 32.16 172.652 34.6 173.592 36.28L175.692 34.68C174.652 32.96 172.252 30.64 170.272 29.04L168.372 30.44ZM157.532 32.68L157.672 35.12C161.612 34.96 167.612 34.72 173.152 34.42L173.272 32.1C167.772 32.34 161.572 32.58 157.532 32.68Z" fill="#374151"/>
<defs>
<clipPath id="clip0_1_82">
<rect width="56" height="56" fill="white"/>
</clipPath>
<clipPath id="clip1_1_82">
<rect width="56" height="56" fill="white"/>
</clipPath>
</defs>
</svg>
