<svg width="16" height="16" viewBox="0 0 16 16" fill="none" xmlns="http://www.w3.org/2000/svg">
<path d="M0.5 7.9825C0.5 4.19099 3.31372 1.05628 6.96667 0.553059V7.9825C6.96667 8.26266 7.08013 8.52708 7.27523 8.71906L12.5224 13.9662C11.265 14.9182 9.69888 15.4825 8 15.4825C3.85786 15.4825 0.5 12.1246 0.5 7.9825ZM15.5 7.9825C15.5 9.68137 14.9357 11.2474 13.9837 12.5049L9.74446 8.26558L15.1083 5.58365C15.3622 6.33634 15.5 7.14291 15.5 7.9825ZM14.1828 3.73581L9.03333 6.31053V0.55306C11.1667 0.846956 13.0147 2.0385 14.1828 3.73581Z" fill="#ECEFF8" stroke="url(#paint0_linear_532_932)"/>
<defs>
<linearGradient id="paint0_linear_532_932" x1="8" y1="0" x2="8" y2="15.9825" gradientUnits="userSpaceOnUse">
<stop stop-color="#8388F9"/>
<stop offset="1" stop-color="#52459F"/>
</linearGradient>
</defs>
</svg>
