<svg width="14" height="16" viewBox="0 0 14 16" fill="none" xmlns="http://www.w3.org/2000/svg">
<path d="M2.2328 9.07668L2.63333 8.99538V8.58668L2.63333 0.5H2.7L2.7 8.58668V8.99538L3.10053 9.07668C4.08929 9.27739 4.83333 10.1524 4.83333 11.2C4.83333 12.2476 4.08929 13.1226 3.10053 13.3233L2.7 13.4046V13.8133V15.5H2.63333V13.8133V13.4046L2.2328 13.3233C1.24404 13.1226 0.5 12.2476 0.5 11.2C0.5 10.1524 1.24404 9.27739 2.2328 9.07668ZM10.7661 2.67668L11.1667 2.59538L11.1667 2.18668L11.1667 0.5H11.2333L11.2333 2.18668L11.2333 2.59538L11.6339 2.67668C12.6226 2.87739 13.3667 3.75237 13.3667 4.8C13.3667 5.84763 12.6226 6.72261 11.6339 6.92332L11.2333 7.00462V7.41332V15.5H11.1667V7.41332V7.00462L10.7661 6.92332C9.77737 6.72261 9.03333 5.84763 9.03333 4.8C9.03333 3.75237 9.77737 2.87739 10.7661 2.67668Z" fill="#ECEFF8" stroke="url(#paint0_linear_532_962)"/>
<defs>
<linearGradient id="paint0_linear_532_962" x1="6.93333" y1="0" x2="6.93333" y2="16" gradientUnits="userSpaceOnUse">
<stop stop-color="#8388F9"/>
<stop offset="1" stop-color="#52459F"/>
</linearGradient>
</defs>
</svg>
