<svg width="18" height="18" viewBox="0 0 18 18" fill="none" xmlns="http://www.w3.org/2000/svg">
<path d="M12.2 4.76667C11.6293 4.76667 11.1667 5.22931 11.1667 5.8C11.1667 6.3707 11.6293 6.83333 12.2 6.83333C12.7707 6.83333 13.2333 6.37069 13.2333 5.8C13.2333 5.22931 12.7707 4.76667 12.2 4.76667ZM9 0.5C8.72594 0.5 8.46311 0.608869 8.26932 0.802657L0.802657 8.26932C0.399114 8.67286 0.399115 9.32714 0.802656 9.73068L8.26932 17.1973C8.67287 17.6009 9.32714 17.6009 9.73068 17.1973L17.1973 9.73068C17.3911 9.53689 17.5 9.27406 17.5 9V2.6C17.5 1.4402 16.5598 0.5 15.4 0.5H9ZM11.1 5.8C11.1 5.19249 11.5925 4.7 12.2 4.7C12.8075 4.7 13.3 5.19249 13.3 5.8C13.3 6.40751 12.8075 6.9 12.2 6.9C11.5925 6.9 11.1 6.40751 11.1 5.8Z" fill="#ECEFF8" stroke="url(#paint0_linear_532_986)" stroke-linejoin="round"/>
<defs>
<linearGradient id="paint0_linear_532_986" x1="9" y1="1" x2="9" y2="17" gradientUnits="userSpaceOnUse">
<stop stop-color="#8388F9"/>
<stop offset="1" stop-color="#52459F"/>
</linearGradient>
</defs>
</svg>
