<svg width="18" height="14" viewBox="0 0 18 14" fill="none" xmlns="http://www.w3.org/2000/svg">
<path d="M17 4.7H17.5V4.2V2.6C17.5 1.4402 16.5598 0.5 15.4 0.5H2.6C1.4402 0.5 0.5 1.4402 0.5 2.6V4.2V4.7H1H17ZM1 4.76667H0.5V5.26667V11.1333C0.5 12.2931 1.4402 13.2333 2.6 13.2333L15.4 13.2333C16.5598 13.2333 17.5 12.2931 17.5 11.1333V5.26667V4.76667H17H1ZM9.03333 8.96667V9.03333H3.63333V8.96667H9.03333ZM14.3667 9.03333H12.1667V8.96667H14.3667V9.03333Z" fill="#ECEFF8" stroke="url(#paint0_linear_532_978)"/>
<defs>
<linearGradient id="paint0_linear_532_978" x1="9" y1="1" x2="9" y2="12.7333" gradientUnits="userSpaceOnUse">
<stop stop-color="#8388F9"/>
<stop offset="1" stop-color="#52459F"/>
</linearGradient>
</defs>
</svg>
